<mxfile host="app.diagrams.net" agent="Mozilla/5.0 (Windows NT 10.0; Win64; x64) AppleWebKit/537.36 (KHTML, like Gecko) Chrome/135.0.0.0 Safari/537.36" version="26.2.14">
  <diagram id="C5RBs43oDa-KdzZeNtuy" name="Page-1">
    <mxGraphModel dx="906" dy="518" grid="1" gridSize="10" guides="1" tooltips="1" connect="1" arrows="1" fold="1" page="1" pageScale="1" pageWidth="827" pageHeight="1169" math="0" shadow="0">
      <root>
        <mxCell id="WIyWlLk6GJQsqaUBKTNV-0" />
        <mxCell id="WIyWlLk6GJQsqaUBKTNV-1" parent="WIyWlLk6GJQsqaUBKTNV-0" />
        <mxCell id="HvuJs7WOY1dfeLT5cr4M-6" style="edgeStyle=orthogonalEdgeStyle;rounded=0;orthogonalLoop=1;jettySize=auto;html=1;exitX=0.5;exitY=1;exitDx=0;exitDy=0;entryX=0.5;entryY=0;entryDx=0;entryDy=0;fontFamily=宋体;fontSize=14;fontColor=default;" parent="WIyWlLk6GJQsqaUBKTNV-1" source="WIyWlLk6GJQsqaUBKTNV-3" edge="1">
          <mxGeometry relative="1" as="geometry">
            <mxPoint x="510.5" y="130" as="targetPoint" />
          </mxGeometry>
        </mxCell>
        <mxCell id="WIyWlLk6GJQsqaUBKTNV-3" value="开始" style="rounded=1;whiteSpace=wrap;html=1;fontSize=14;glass=0;strokeWidth=1;shadow=0;arcSize=47;fontFamily=宋体;" parent="WIyWlLk6GJQsqaUBKTNV-1" vertex="1">
          <mxGeometry x="470.5" y="80" width="80" height="30" as="geometry" />
        </mxCell>
        <mxCell id="Dsx00uWK3pldCxW48gUQ-49" style="edgeStyle=orthogonalEdgeStyle;rounded=0;orthogonalLoop=1;jettySize=auto;html=1;exitX=0.5;exitY=1;exitDx=0;exitDy=0;entryX=0.5;entryY=0;entryDx=0;entryDy=0;" parent="WIyWlLk6GJQsqaUBKTNV-1" source="Dsx00uWK3pldCxW48gUQ-36" target="Dsx00uWK3pldCxW48gUQ-48" edge="1">
          <mxGeometry relative="1" as="geometry" />
        </mxCell>
        <mxCell id="Dsx00uWK3pldCxW48gUQ-36" value="用户登录成功" style="rounded=0;whiteSpace=wrap;html=1;fontFamily=宋体;fontSize=14;" parent="WIyWlLk6GJQsqaUBKTNV-1" vertex="1">
          <mxGeometry x="440" y="130" width="140" height="30" as="geometry" />
        </mxCell>
        <mxCell id="Xage3mLR-v6rwJJ7wIjh-10" style="edgeStyle=orthogonalEdgeStyle;rounded=0;orthogonalLoop=1;jettySize=auto;html=1;exitX=0.5;exitY=1;exitDx=0;exitDy=0;entryX=0.5;entryY=0;entryDx=0;entryDy=0;" edge="1" parent="WIyWlLk6GJQsqaUBKTNV-1" source="Dsx00uWK3pldCxW48gUQ-48" target="Xage3mLR-v6rwJJ7wIjh-1">
          <mxGeometry relative="1" as="geometry">
            <Array as="points">
              <mxPoint x="510" y="220" />
              <mxPoint x="320" y="220" />
            </Array>
          </mxGeometry>
        </mxCell>
        <mxCell id="Xage3mLR-v6rwJJ7wIjh-11" style="edgeStyle=orthogonalEdgeStyle;rounded=0;orthogonalLoop=1;jettySize=auto;html=1;exitX=0.5;exitY=1;exitDx=0;exitDy=0;entryX=0.5;entryY=0;entryDx=0;entryDy=0;" edge="1" parent="WIyWlLk6GJQsqaUBKTNV-1" source="Dsx00uWK3pldCxW48gUQ-48" target="Xage3mLR-v6rwJJ7wIjh-0">
          <mxGeometry relative="1" as="geometry">
            <Array as="points">
              <mxPoint x="510" y="220" />
              <mxPoint x="446" y="220" />
            </Array>
          </mxGeometry>
        </mxCell>
        <mxCell id="Xage3mLR-v6rwJJ7wIjh-12" style="edgeStyle=orthogonalEdgeStyle;rounded=0;orthogonalLoop=1;jettySize=auto;html=1;exitX=0.5;exitY=1;exitDx=0;exitDy=0;entryX=0.5;entryY=0;entryDx=0;entryDy=0;" edge="1" parent="WIyWlLk6GJQsqaUBKTNV-1" source="Dsx00uWK3pldCxW48gUQ-48" target="Xage3mLR-v6rwJJ7wIjh-2">
          <mxGeometry relative="1" as="geometry">
            <Array as="points">
              <mxPoint x="510" y="220" />
              <mxPoint x="570" y="220" />
            </Array>
          </mxGeometry>
        </mxCell>
        <mxCell id="Xage3mLR-v6rwJJ7wIjh-13" style="edgeStyle=orthogonalEdgeStyle;rounded=0;orthogonalLoop=1;jettySize=auto;html=1;exitX=0.5;exitY=1;exitDx=0;exitDy=0;entryX=0.5;entryY=0;entryDx=0;entryDy=0;" edge="1" parent="WIyWlLk6GJQsqaUBKTNV-1" source="Dsx00uWK3pldCxW48gUQ-48" target="Xage3mLR-v6rwJJ7wIjh-3">
          <mxGeometry relative="1" as="geometry">
            <Array as="points">
              <mxPoint x="510" y="220" />
              <mxPoint x="690" y="220" />
            </Array>
          </mxGeometry>
        </mxCell>
        <mxCell id="Dsx00uWK3pldCxW48gUQ-48" value="进入首页" style="rounded=0;whiteSpace=wrap;html=1;fontFamily=宋体;fontSize=14;" parent="WIyWlLk6GJQsqaUBKTNV-1" vertex="1">
          <mxGeometry x="440" y="181" width="140" height="30" as="geometry" />
        </mxCell>
        <mxCell id="Dsx00uWK3pldCxW48gUQ-62" value="进入&lt;div&gt;洗衣预约&lt;/div&gt;" style="rounded=1;whiteSpace=wrap;html=1;fontSize=14;glass=0;strokeWidth=1;shadow=0;arcSize=47;fontFamily=宋体;" parent="WIyWlLk6GJQsqaUBKTNV-1" vertex="1">
          <mxGeometry x="280" y="545" width="80" height="40" as="geometry" />
        </mxCell>
        <mxCell id="Xage3mLR-v6rwJJ7wIjh-20" style="edgeStyle=orthogonalEdgeStyle;rounded=0;orthogonalLoop=1;jettySize=auto;html=1;exitX=0.5;exitY=1;exitDx=0;exitDy=0;entryX=0.5;entryY=0;entryDx=0;entryDy=0;" edge="1" parent="WIyWlLk6GJQsqaUBKTNV-1" source="Xage3mLR-v6rwJJ7wIjh-0" target="Xage3mLR-v6rwJJ7wIjh-14">
          <mxGeometry relative="1" as="geometry" />
        </mxCell>
        <mxCell id="Xage3mLR-v6rwJJ7wIjh-0" value="获取公告列表" style="rounded=0;whiteSpace=wrap;html=1;fontFamily=宋体;fontSize=14;" vertex="1" parent="WIyWlLk6GJQsqaUBKTNV-1">
          <mxGeometry x="396" y="249" width="100" height="30" as="geometry" />
        </mxCell>
        <mxCell id="Xage3mLR-v6rwJJ7wIjh-19" style="edgeStyle=orthogonalEdgeStyle;rounded=0;orthogonalLoop=1;jettySize=auto;html=1;exitX=0.5;exitY=1;exitDx=0;exitDy=0;entryX=0.5;entryY=0;entryDx=0;entryDy=0;" edge="1" parent="WIyWlLk6GJQsqaUBKTNV-1" source="Xage3mLR-v6rwJJ7wIjh-1" target="Xage3mLR-v6rwJJ7wIjh-8">
          <mxGeometry relative="1" as="geometry" />
        </mxCell>
        <mxCell id="Xage3mLR-v6rwJJ7wIjh-1" value="获取服务类型" style="rounded=0;whiteSpace=wrap;html=1;fontFamily=宋体;fontSize=14;" vertex="1" parent="WIyWlLk6GJQsqaUBKTNV-1">
          <mxGeometry x="270" y="249" width="100" height="30" as="geometry" />
        </mxCell>
        <mxCell id="Xage3mLR-v6rwJJ7wIjh-22" style="edgeStyle=orthogonalEdgeStyle;rounded=0;orthogonalLoop=1;jettySize=auto;html=1;exitX=0.5;exitY=1;exitDx=0;exitDy=0;entryX=0.5;entryY=0;entryDx=0;entryDy=0;" edge="1" parent="WIyWlLk6GJQsqaUBKTNV-1" source="Xage3mLR-v6rwJJ7wIjh-2" target="Xage3mLR-v6rwJJ7wIjh-15">
          <mxGeometry relative="1" as="geometry" />
        </mxCell>
        <mxCell id="Xage3mLR-v6rwJJ7wIjh-2" value="获取活跃订单" style="rounded=0;whiteSpace=wrap;html=1;fontFamily=宋体;fontSize=14;" vertex="1" parent="WIyWlLk6GJQsqaUBKTNV-1">
          <mxGeometry x="520" y="249" width="100" height="30" as="geometry" />
        </mxCell>
        <mxCell id="Xage3mLR-v6rwJJ7wIjh-16" style="edgeStyle=orthogonalEdgeStyle;rounded=0;orthogonalLoop=1;jettySize=auto;html=1;exitX=0.5;exitY=1;exitDx=0;exitDy=0;entryX=0.5;entryY=0;entryDx=0;entryDy=0;" edge="1" parent="WIyWlLk6GJQsqaUBKTNV-1" source="Xage3mLR-v6rwJJ7wIjh-3" target="Xage3mLR-v6rwJJ7wIjh-5">
          <mxGeometry relative="1" as="geometry" />
        </mxCell>
        <mxCell id="Xage3mLR-v6rwJJ7wIjh-3" value="挂载天气组件" style="rounded=0;whiteSpace=wrap;html=1;fontFamily=宋体;fontSize=14;" vertex="1" parent="WIyWlLk6GJQsqaUBKTNV-1">
          <mxGeometry x="640" y="249" width="100" height="30" as="geometry" />
        </mxCell>
        <mxCell id="Xage3mLR-v6rwJJ7wIjh-17" style="edgeStyle=orthogonalEdgeStyle;rounded=0;orthogonalLoop=1;jettySize=auto;html=1;exitX=0.5;exitY=1;exitDx=0;exitDy=0;entryX=0.5;entryY=0;entryDx=0;entryDy=0;" edge="1" parent="WIyWlLk6GJQsqaUBKTNV-1" source="Xage3mLR-v6rwJJ7wIjh-5" target="Xage3mLR-v6rwJJ7wIjh-6">
          <mxGeometry relative="1" as="geometry" />
        </mxCell>
        <mxCell id="Xage3mLR-v6rwJJ7wIjh-5" value="获取位置信息" style="rounded=0;whiteSpace=wrap;html=1;fontFamily=宋体;fontSize=14;" vertex="1" parent="WIyWlLk6GJQsqaUBKTNV-1">
          <mxGeometry x="640" y="292" width="100" height="30" as="geometry" />
        </mxCell>
        <mxCell id="Xage3mLR-v6rwJJ7wIjh-18" style="edgeStyle=orthogonalEdgeStyle;rounded=0;orthogonalLoop=1;jettySize=auto;html=1;exitX=0.5;exitY=1;exitDx=0;exitDy=0;entryX=0.5;entryY=0;entryDx=0;entryDy=0;" edge="1" parent="WIyWlLk6GJQsqaUBKTNV-1" source="Xage3mLR-v6rwJJ7wIjh-6" target="Xage3mLR-v6rwJJ7wIjh-7">
          <mxGeometry relative="1" as="geometry" />
        </mxCell>
        <mxCell id="Xage3mLR-v6rwJJ7wIjh-6" value="调用天气API" style="rounded=0;whiteSpace=wrap;html=1;fontFamily=宋体;fontSize=14;" vertex="1" parent="WIyWlLk6GJQsqaUBKTNV-1">
          <mxGeometry x="640" y="338" width="100" height="30" as="geometry" />
        </mxCell>
        <mxCell id="Xage3mLR-v6rwJJ7wIjh-7" value="获取天气数据&lt;div&gt;渲染组件并&lt;/div&gt;&lt;div&gt;展示数据&lt;/div&gt;" style="rounded=0;whiteSpace=wrap;html=1;fontFamily=宋体;fontSize=14;" vertex="1" parent="WIyWlLk6GJQsqaUBKTNV-1">
          <mxGeometry x="641" y="384" width="100" height="66" as="geometry" />
        </mxCell>
        <mxCell id="Xage3mLR-v6rwJJ7wIjh-24" style="edgeStyle=orthogonalEdgeStyle;rounded=0;orthogonalLoop=1;jettySize=auto;html=1;exitX=0.5;exitY=1;exitDx=0;exitDy=0;entryX=0;entryY=0.5;entryDx=0;entryDy=0;" edge="1" parent="WIyWlLk6GJQsqaUBKTNV-1" source="Xage3mLR-v6rwJJ7wIjh-8" target="Xage3mLR-v6rwJJ7wIjh-23">
          <mxGeometry relative="1" as="geometry" />
        </mxCell>
        <mxCell id="Xage3mLR-v6rwJJ7wIjh-8" value="展示&lt;div&gt;服务类型&lt;/div&gt;" style="rounded=0;whiteSpace=wrap;html=1;fontFamily=宋体;fontSize=14;" vertex="1" parent="WIyWlLk6GJQsqaUBKTNV-1">
          <mxGeometry x="270" y="295.75" width="100" height="37" as="geometry" />
        </mxCell>
        <mxCell id="Xage3mLR-v6rwJJ7wIjh-25" style="edgeStyle=orthogonalEdgeStyle;rounded=0;orthogonalLoop=1;jettySize=auto;html=1;exitX=0.5;exitY=1;exitDx=0;exitDy=0;entryX=0.5;entryY=0;entryDx=0;entryDy=0;" edge="1" parent="WIyWlLk6GJQsqaUBKTNV-1" source="Xage3mLR-v6rwJJ7wIjh-14" target="Xage3mLR-v6rwJJ7wIjh-23">
          <mxGeometry relative="1" as="geometry" />
        </mxCell>
        <mxCell id="Xage3mLR-v6rwJJ7wIjh-14" value="展示公告条" style="rounded=0;whiteSpace=wrap;html=1;fontFamily=宋体;fontSize=14;" vertex="1" parent="WIyWlLk6GJQsqaUBKTNV-1">
          <mxGeometry x="396" y="295.75" width="100" height="37" as="geometry" />
        </mxCell>
        <mxCell id="Xage3mLR-v6rwJJ7wIjh-26" style="edgeStyle=orthogonalEdgeStyle;rounded=0;orthogonalLoop=1;jettySize=auto;html=1;exitX=0.5;exitY=1;exitDx=0;exitDy=0;entryX=1;entryY=0.5;entryDx=0;entryDy=0;" edge="1" parent="WIyWlLk6GJQsqaUBKTNV-1" source="Xage3mLR-v6rwJJ7wIjh-15" target="Xage3mLR-v6rwJJ7wIjh-23">
          <mxGeometry relative="1" as="geometry" />
        </mxCell>
        <mxCell id="Xage3mLR-v6rwJJ7wIjh-15" value="展示&lt;br&gt;&lt;div&gt;订单轮播图&lt;/div&gt;" style="rounded=0;whiteSpace=wrap;html=1;fontFamily=宋体;fontSize=14;" vertex="1" parent="WIyWlLk6GJQsqaUBKTNV-1">
          <mxGeometry x="520" y="296" width="100" height="37" as="geometry" />
        </mxCell>
        <mxCell id="Xage3mLR-v6rwJJ7wIjh-33" style="edgeStyle=orthogonalEdgeStyle;rounded=0;orthogonalLoop=1;jettySize=auto;html=1;exitX=0.5;exitY=1;exitDx=0;exitDy=0;entryX=0.5;entryY=0;entryDx=0;entryDy=0;" edge="1" parent="WIyWlLk6GJQsqaUBKTNV-1" source="Xage3mLR-v6rwJJ7wIjh-23" target="Xage3mLR-v6rwJJ7wIjh-30">
          <mxGeometry relative="1" as="geometry" />
        </mxCell>
        <mxCell id="Xage3mLR-v6rwJJ7wIjh-36" style="edgeStyle=orthogonalEdgeStyle;rounded=0;orthogonalLoop=1;jettySize=auto;html=1;exitX=0.5;exitY=1;exitDx=0;exitDy=0;entryX=0.5;entryY=0;entryDx=0;entryDy=0;" edge="1" parent="WIyWlLk6GJQsqaUBKTNV-1" source="Xage3mLR-v6rwJJ7wIjh-23" target="Xage3mLR-v6rwJJ7wIjh-29">
          <mxGeometry relative="1" as="geometry">
            <Array as="points">
              <mxPoint x="446" y="420" />
              <mxPoint x="320" y="420" />
            </Array>
          </mxGeometry>
        </mxCell>
        <mxCell id="Xage3mLR-v6rwJJ7wIjh-38" style="edgeStyle=orthogonalEdgeStyle;rounded=0;orthogonalLoop=1;jettySize=auto;html=1;exitX=0.5;exitY=1;exitDx=0;exitDy=0;entryX=0.5;entryY=0;entryDx=0;entryDy=0;" edge="1" parent="WIyWlLk6GJQsqaUBKTNV-1" source="Xage3mLR-v6rwJJ7wIjh-23" target="Xage3mLR-v6rwJJ7wIjh-28">
          <mxGeometry relative="1" as="geometry">
            <Array as="points">
              <mxPoint x="446" y="420" />
              <mxPoint x="575" y="420" />
            </Array>
          </mxGeometry>
        </mxCell>
        <mxCell id="Xage3mLR-v6rwJJ7wIjh-23" value="用户交互" style="rhombus;whiteSpace=wrap;html=1;fontFamily=宋体;fontSize=14;" vertex="1" parent="WIyWlLk6GJQsqaUBKTNV-1">
          <mxGeometry x="406" y="360" width="80" height="50" as="geometry" />
        </mxCell>
        <mxCell id="Xage3mLR-v6rwJJ7wIjh-43" style="edgeStyle=orthogonalEdgeStyle;rounded=0;orthogonalLoop=1;jettySize=auto;html=1;exitX=0.5;exitY=1;exitDx=0;exitDy=0;entryX=0.5;entryY=0;entryDx=0;entryDy=0;" edge="1" parent="WIyWlLk6GJQsqaUBKTNV-1" source="Xage3mLR-v6rwJJ7wIjh-28" target="Xage3mLR-v6rwJJ7wIjh-32">
          <mxGeometry relative="1" as="geometry" />
        </mxCell>
        <mxCell id="Xage3mLR-v6rwJJ7wIjh-28" value="跳转订单&lt;div&gt;详情页&lt;/div&gt;" style="rounded=0;whiteSpace=wrap;html=1;fontFamily=宋体;fontSize=14;" vertex="1" parent="WIyWlLk6GJQsqaUBKTNV-1">
          <mxGeometry x="530" y="463" width="90" height="37" as="geometry" />
        </mxCell>
        <mxCell id="Xage3mLR-v6rwJJ7wIjh-42" style="edgeStyle=orthogonalEdgeStyle;rounded=0;orthogonalLoop=1;jettySize=auto;html=1;exitX=0.5;exitY=1;exitDx=0;exitDy=0;" edge="1" parent="WIyWlLk6GJQsqaUBKTNV-1" source="Xage3mLR-v6rwJJ7wIjh-29" target="Dsx00uWK3pldCxW48gUQ-62">
          <mxGeometry relative="1" as="geometry" />
        </mxCell>
        <mxCell id="Xage3mLR-v6rwJJ7wIjh-29" value="展示拥有&lt;div&gt;该服务类型&lt;/div&gt;&lt;div&gt;的服务点&lt;/div&gt;" style="rounded=0;whiteSpace=wrap;html=1;fontFamily=宋体;fontSize=14;" vertex="1" parent="WIyWlLk6GJQsqaUBKTNV-1">
          <mxGeometry x="270" y="463" width="100" height="50" as="geometry" />
        </mxCell>
        <mxCell id="Xage3mLR-v6rwJJ7wIjh-30" value="展示公告&lt;div&gt;详情内容&lt;/div&gt;" style="rounded=0;whiteSpace=wrap;html=1;fontFamily=宋体;fontSize=14;" vertex="1" parent="WIyWlLk6GJQsqaUBKTNV-1">
          <mxGeometry x="396" y="463" width="100" height="37" as="geometry" />
        </mxCell>
        <mxCell id="Xage3mLR-v6rwJJ7wIjh-32" value="操作订单状态" style="rounded=0;whiteSpace=wrap;html=1;fontFamily=宋体;fontSize=14;" vertex="1" parent="WIyWlLk6GJQsqaUBKTNV-1">
          <mxGeometry x="530" y="530" width="90" height="37" as="geometry" />
        </mxCell>
        <mxCell id="Xage3mLR-v6rwJJ7wIjh-39" value="[点击类型图标]" style="text;html=1;align=center;verticalAlign=middle;whiteSpace=wrap;rounded=0;spacing=0;fontFamily=宋体;" vertex="1" parent="WIyWlLk6GJQsqaUBKTNV-1">
          <mxGeometry x="230" y="420" width="90" height="30" as="geometry" />
        </mxCell>
        <mxCell id="Xage3mLR-v6rwJJ7wIjh-40" value="[点击公告条]" style="text;html=1;align=center;verticalAlign=middle;whiteSpace=wrap;rounded=0;spacing=0;fontFamily=宋体;" vertex="1" parent="WIyWlLk6GJQsqaUBKTNV-1">
          <mxGeometry x="350" y="420" width="90" height="30" as="geometry" />
        </mxCell>
        <mxCell id="Xage3mLR-v6rwJJ7wIjh-41" value="[点击订单]" style="text;html=1;align=center;verticalAlign=middle;whiteSpace=wrap;rounded=0;spacing=0;fontFamily=宋体;" vertex="1" parent="WIyWlLk6GJQsqaUBKTNV-1">
          <mxGeometry x="486" y="420" width="90" height="30" as="geometry" />
        </mxCell>
      </root>
    </mxGraphModel>
  </diagram>
</mxfile>
